<?xml version="1.0" standalone="no"?>
<!DOCTYPE svg PUBLIC "-//W3C//DTD SVG 20010904//EN"
 "http://www.w3.org/TR/2001/REC-SVG-20010904/DTD/svg10.dtd">
<svg version="1.0" xmlns="http://www.w3.org/2000/svg"
 width="582.000000pt" height="575.000000pt" viewBox="0 0 582.000000 575.000000"
 preserveAspectRatio="xMidYMid meet">

<g transform="translate(0.000000,575.000000) scale(0.100000,-0.100000)"
fill="#000000" stroke="none">
<path d="M0 2875 l0 -2875 2910 0 2910 0 0 2875 0 2875 -2910 0 -2910 0 0
-2875z m5370 -95 l0 -2490 -2490 0 -2490 0 0 2490 0 2490 2490 0 2490 0 0
-2490z"/>
<path d="M560 4385 l0 -725 720 0 720 0 0 725 0 725 -720 0 -720 0 0 -725z
m882 482 c64 -31 103 -76 119 -139 22 -82 -25 -173 -110 -215 l-39 -19 49 -27
c97 -55 146 -153 137 -271 -10 -118 -83 -214 -197 -257 -76 -29 -225 -37 -304
-16 -79 21 -142 61 -175 109 -24 37 -27 51 -27 123 0 75 2 85 29 120 19 24 50
47 89 65 l61 27 -30 16 c-76 40 -125 128 -125 227 -1 115 47 197 143 246 70
36 112 43 223 41 86 -2 108 -6 157 -30z"/>
<path d="M1163 4810 c-43 -26 -66 -63 -66 -108 0 -48 24 -94 62 -121 34 -24
152 -56 175 -48 48 19 72 155 40 223 -32 67 -143 96 -211 54z"/>
<path d="M1119 4293 c-41 -43 -52 -73 -52 -134 1 -90 42 -148 122 -169 88 -23
187 15 221 85 24 49 25 74 6 120 -18 41 -59 68 -146 95 -113 35 -122 35 -151
3z"/>
<path d="M2165 5098 c-3 -7 -4 -332 -3 -723 l3 -710 720 0 720 0 0 720 0 720
-718 3 c-569 2 -719 0 -722 -10z"/>
<path d="M3770 4385 l0 -725 720 0 720 0 0 725 0 725 -720 0 -720 0 0 -725z
m881 185 l-3 -320 71 0 71 0 0 -45 0 -45 -70 0 -70 0 0 -74 c0 -49 4 -78 13
-83 6 -4 35 -10 62 -13 49 -5 50 -5 53 -42 l3 -38 -241 0 -241 0 3 38 c3 37 3
37 53 40 27 2 55 8 62 14 8 7 13 37 13 84 l0 74 -185 0 -185 0 0 50 0 51 247
307 c136 169 252 310 257 314 6 4 29 8 51 8 l40 0 -4 -320z"/>
<path d="M4300 4428 c-69 -88 -126 -164 -128 -169 -2 -5 55 -9 127 -9 l131 0
0 170 c0 94 -1 170 -2 169 -2 0 -59 -72 -128 -161z"/>
<path d="M560 2780 l0 -720 720 0 720 0 0 720 0 720 -720 0 -720 0 0 -720z"/>
<path d="M2160 2780 l0 -720 725 0 725 0 0 720 0 720 -725 0 -725 0 0 -720z
m625 460 c113 -8 221 -5 360 13 50 6 16 -93 -53 -155 -58 -52 -135 -78 -235
-78 -45 0 -100 5 -122 10 -22 5 -41 8 -42 6 -6 -5 -23 -159 -19 -164 3 -2 31
6 63 18 65 25 170 30 238 11 104 -28 200 -119 226 -214 18 -66 7 -173 -24
-233 -70 -138 -247 -215 -424 -185 -152 26 -233 103 -233 219 0 83 54 142 130
142 114 0 159 -142 64 -201 -44 -27 -41 -48 11 -73 28 -13 53 -17 89 -13 42 4
55 10 87 45 47 50 63 104 63 212 0 148 -52 220 -157 220 -27 0 -70 -9 -98 -21
-39 -17 -49 -26 -49 -45 0 -31 -35 -66 -63 -62 -12 2 -28 15 -36 30 -14 25
-14 29 6 57 20 26 24 53 38 240 8 116 15 218 15 227 0 11 5 14 17 10 10 -4 76
-11 148 -16z"/>
<path d="M3770 2780 l0 -720 720 0 720 0 0 720 0 720 -720 0 -720 0 0 -720z
m820 478 c100 -46 174 -138 205 -253 23 -86 21 -250 -4 -347 -63 -246 -218
-371 -441 -355 -144 9 -220 70 -220 174 0 47 4 58 34 91 32 34 38 37 91 37 51
0 59 -3 86 -33 33 -37 38 -89 14 -132 -33 -57 0 -84 76 -61 78 24 126 126 136
291 l6 95 -24 -21 c-91 -82 -256 -83 -352 -4 -61 52 -90 111 -95 199 -2 42 1
94 7 116 25 95 106 179 209 218 70 26 199 19 272 -15z"/>
<path d="M4411 3207 c-52 -26 -66 -70 -66 -207 0 -144 13 -182 70 -206 101
-42 169 84 144 264 -12 85 -28 123 -61 146 -27 19 -54 20 -87 3z"/>
<path d="M560 1170 l0 -720 720 0 720 0 0 720 0 720 -720 0 -720 0 0 -720z
m690 465 c140 0 270 3 289 7 l33 8 -5 -43 c-2 -23 -34 -107 -72 -187 -116
-250 -155 -390 -155 -565 -1 -112 -20 -163 -73 -188 -101 -48 -192 13 -191
128 2 93 65 219 246 490 47 72 86 131 85 132 -1 0 -89 3 -195 4 -227 4 -212
11 -239 -113 l-16 -78 -39 0 c-21 0 -38 3 -38 8 0 18 42 388 45 399 3 9 14 10
37 5 18 -4 148 -7 288 -7z"/>
<path d="M2162 1173 l3 -718 720 0 720 0 3 718 2 717 -725 0 -725 0 2 -717z
m838 464 c36 -13 72 -37 105 -71 85 -85 96 -178 36 -301 -37 -75 -68 -103
-246 -225 -71 -49 -143 -101 -160 -114 l-30 -25 177 -1 c204 0 196 -4 218 103
11 55 12 57 44 57 18 0 35 -2 37 -4 4 -4 -26 -371 -30 -371 -1 0 -151 1 -333
2 l-333 2 -3 32 c-4 39 59 124 224 300 197 211 253 312 239 423 -12 95 -56
136 -147 136 -89 0 -176 -68 -131 -102 71 -56 93 -86 93 -126 0 -80 -40 -122
-117 -122 -147 0 -179 212 -51 341 89 89 268 118 408 66z"/>
<path d="M3770 1170 l0 -720 720 0 720 0 0 720 0 720 -720 0 -720 0 0 -720z
m872 460 c121 -37 181 -146 133 -240 -34 -66 -154 -81 -202 -26 -35 41 -39 72
-15 129 26 62 18 77 -44 77 -36 0 -49 -6 -78 -34 -19 -19 -43 -59 -54 -89 -20
-52 -42 -178 -42 -238 l0 -29 50 34 c158 109 381 18 420 -171 42 -198 -99
-374 -313 -390 -166 -12 -298 74 -365 239 -33 83 -42 247 -18 358 31 146 134
302 234 354 90 47 197 56 294 26z"/>
<path d="M4423 1146 c-47 -21 -66 -66 -71 -170 -6 -111 10 -185 48 -226 55
-59 134 -24 160 71 16 57 16 204 1 250 -22 69 -80 100 -138 75z"/>
</g>
</svg>
