<svg version="1.1" xmlns="http://www.w3.org/2000/svg" xmlns:xlink="http://www.w3.org/1999/xlink" width="582.000000pt" height="575.000000pt" viewBox="0,0,256,252.91251"><g fill="#ffffff" fill-rule="nonzero" stroke="none" stroke-width="1" stroke-linecap="butt" stroke-linejoin="miter" stroke-miterlimit="10" stroke-dasharray="" stroke-dashoffset="0" font-family="none" font-weight="none" font-size="none" text-anchor="none" style="mix-blend-mode: normal"><g transform="translate(0,-0.00423) scale(0.43986,0.43986)"><g transform="translate(0,575) scale(0.1,-0.1)"><path d="M0,2875v-2875h2910h2910v2875v2875h-2910h-2910zM5370,2780v-2490h-2490h-2490v2490v2490h2490h2490z"></path><path d="M560,4385v-725h720h720v725v725h-720h-720zM1442,4867c64,-31 103,-76 119,-139c22,-82 -25,-173 -110,-215l-39,-19l49,-27c97,-55 146,-153 137,-271c-10,-118 -83,-214 -197,-257c-76,-29 -225,-37 -304,-16c-79,21 -142,61 -175,109c-24,37 -27,51 -27,123c0,75 2,85 29,120c19,24 50,47 89,65l61,27l-30,16c-76,40 -125,128 -125,227c-1,115 47,197 143,246c70,36 112,43 223,41c86,-2 108,-6 157,-30z"></path><path d="M1163,4810c-43,-26 -66,-63 -66,-108c0,-48 24,-94 62,-121c34,-24 152,-56 175,-48c48,19 72,155 40,223c-32,67 -143,96 -211,54z"></path><path d="M1119,4293c-41,-43 -52,-73 -52,-134c1,-90 42,-148 122,-169c88,-23 187,15 221,85c24,49 25,74 6,120c-18,41 -59,68 -146,95c-113,35 -122,35 -151,3z"></path><path d="M2165,5098c-3,-7 -4,-332 -3,-723l3,-710h720h720v720v720l-718,3c-569,2 -719,0 -722,-10z"></path><path d="M3770,4385v-725h720h720v725v725h-720h-720zM4651,4570l-3,-320h71h71v-45v-45h-70h-70v-74c0,-49 4,-78 13,-83c6,-4 35,-10 62,-13c49,-5 50,-5 53,-42l3,-38h-241h-241l3,38c3,37 3,37 53,40c27,2 55,8 62,14c8,7 13,37 13,84v74h-185h-185v50v51l247,307c136,169 252,310 257,314c6,4 29,8 51,8h40z"></path><path d="M4300,4428c-69,-88 -126,-164 -128,-169c-2,-5 55,-9 127,-9h131v170c0,94 -1,170 -2,169c-2,0 -59,-72 -128,-161z"></path><path d="M560,2780v-720h720h720v720v720h-720h-720z"></path><path d="M2160,2780v-720h725h725v720v720h-725h-725zM2785,3240c113,-8 221,-5 360,13c50,6 16,-93 -53,-155c-58,-52 -135,-78 -235,-78c-45,0 -100,5 -122,10c-22,5 -41,8 -42,6c-6,-5 -23,-159 -19,-164c3,-2 31,6 63,18c65,25 170,30 238,11c104,-28 200,-119 226,-214c18,-66 7,-173 -24,-233c-70,-138 -247,-215 -424,-185c-152,26 -233,103 -233,219c0,83 54,142 130,142c114,0 159,-142 64,-201c-44,-27 -41,-48 11,-73c28,-13 53,-17 89,-13c42,4 55,10 87,45c47,50 63,104 63,212c0,148 -52,220 -157,220c-27,0 -70,-9 -98,-21c-39,-17 -49,-26 -49,-45c0,-31 -35,-66 -63,-62c-12,2 -28,15 -36,30c-14,25 -14,29 6,57c20,26 24,53 38,240c8,116 15,218 15,227c0,11 5,14 17,10c10,-4 76,-11 148,-16z"></path><path d="M3770,2780v-720h720h720v720v720h-720h-720zM4590,3258c100,-46 174,-138 205,-253c23,-86 21,-250 -4,-347c-63,-246 -218,-371 -441,-355c-144,9 -220,70 -220,174c0,47 4,58 34,91c32,34 38,37 91,37c51,0 59,-3 86,-33c33,-37 38,-89 14,-132c-33,-57 0,-84 76,-61c78,24 126,126 136,291l6,95l-24,-21c-91,-82 -256,-83 -352,-4c-61,52 -90,111 -95,199c-2,42 1,94 7,116c25,95 106,179 209,218c70,26 199,19 272,-15z"></path><path d="M4411,3207c-52,-26 -66,-70 -66,-207c0,-144 13,-182 70,-206c101,-42 169,84 144,264c-12,85 -28,123 -61,146c-27,19 -54,20 -87,3z"></path><path d="M560,1170v-720h720h720v720v720h-720h-720zM1250,1635c140,0 270,3 289,7l33,8l-5,-43c-2,-23 -34,-107 -72,-187c-116,-250 -155,-390 -155,-565c-1,-112 -20,-163 -73,-188c-101,-48 -192,13 -191,128c2,93 65,219 246,490c47,72 86,131 85,132c-1,0 -89,3 -195,4c-227,4 -212,11 -239,-113l-16,-78h-39c-21,0 -38,3 -38,8c0,18 42,388 45,399c3,9 14,10 37,5c18,-4 148,-7 288,-7z"></path><path d="M2162,1173l3,-718h720h720l3,718l2,717h-725h-725zM3000,1637c36,-13 72,-37 105,-71c85,-85 96,-178 36,-301c-37,-75 -68,-103 -246,-225c-71,-49 -143,-101 -160,-114l-30,-25l177,-1c204,0 196,-4 218,103c11,55 12,57 44,57c18,0 35,-2 37,-4c4,-4 -26,-371 -30,-371c-1,0 -151,1 -333,2l-333,2l-3,32c-4,39 59,124 224,300c197,211 253,312 239,423c-12,95 -56,136 -147,136c-89,0 -176,-68 -131,-102c71,-56 93,-86 93,-126c0,-80 -40,-122 -117,-122c-147,0 -179,212 -51,341c89,89 268,118 408,66z"></path><path d="M3770,1170v-720h720h720v720v720h-720h-720zM4642,1630c121,-37 181,-146 133,-240c-34,-66 -154,-81 -202,-26c-35,41 -39,72 -15,129c26,62 18,77 -44,77c-36,0 -49,-6 -78,-34c-19,-19 -43,-59 -54,-89c-20,-52 -42,-178 -42,-238v-29l50,34c158,109 381,18 420,-171c42,-198 -99,-374 -313,-390c-166,-12 -298,74 -365,239c-33,83 -42,247 -18,358c31,146 134,302 234,354c90,47 197,56 294,26z"></path><path d="M4423,1146c-47,-21 -66,-66 -71,-170c-6,-111 10,-185 48,-226c55,-59 134,-24 160,71c16,57 16,204 1,250c-22,69 -80,100 -138,75z"></path></g></g></g></svg>