<svg version="1.1" xmlns="http://www.w3.org/2000/svg" xmlns:xlink="http://www.w3.org/1999/xlink" width="512" height="512" viewBox="0,0,256,256"><g fill="#ffffff" fill-rule="nonzero" stroke="none" stroke-width="1" stroke-linecap="butt" stroke-linejoin="miter" stroke-miterlimit="10" stroke-dasharray="" stroke-dashoffset="0" font-family="none" font-weight="none" font-size="none" text-anchor="none" style="mix-blend-mode: normal"><g transform="scale(10.66667,10.66667)"><g id="_01_align_center"><path d="M21,24h-2v-5.043c-0.00165,-1.63242 -1.32458,-2.95535 -2.957,-2.957h-8.086c-1.63242,0.00165 -2.95535,1.32458 -2.957,2.957v5.043h-2v-5.043c0.00331,-2.7363 2.2207,-4.95369 4.957,-4.957h8.086c2.7363,0.00331 4.95369,2.2207 4.957,4.957z"></path><path d="M12,12c-3.31371,0 -6,-2.68629 -6,-6c0,-3.31371 2.68629,-6 6,-6c3.31371,0 6,2.68629 6,6c-0.00331,3.31234 -2.68766,5.99669 -6,6zM12,2c-2.20914,0 -4,1.79086 -4,4c0,2.20914 1.79086,4 4,4c2.20914,0 4,-1.79086 4,-4c0,-2.20914 -1.79086,-4 -4,-4z"></path></g></g></g></svg>